<?xml version="1.0" encoding="utf-8"?>
<!-- Generator: Adobe Illustrator 23.0.1, SVG Export Plug-In . SVG Version: 6.00 Build 0)  -->
<svg version="1.1" id="Capa_1" xmlns="http://www.w3.org/2000/svg" xmlns:xlink="http://www.w3.org/1999/xlink" x="0px" y="0px"
	 viewBox="0 0 200 50" style="enable-background:new 0 0 200 50;" xml:space="preserve">
<style type="text/css">
	.st0{fill:#FFFFFF;}
</style>
<g>
	<path class="st0" d="M19.65,23.87c0.99,0,1.73,0.18,2.23,0.53c0.5,0.35,0.81,0.8,0.93,1.34s0.1,1.14-0.07,1.81
		s-0.42,1.32-0.74,1.97c-0.32,0.65-0.69,1.24-1.11,1.78s-0.79,0.96-1.13,1.27c-0.36,0.31-0.67,0.46-0.92,0.46s-0.46-0.09-0.62-0.27
		c-0.16-0.18-0.28-0.42-0.36-0.73c-0.08-0.31-0.13-0.61-0.14-0.92c-0.01-0.31,0.02-0.59,0.09-0.86c0.07-0.27,0.17-0.46,0.3-0.57
		s0.31-0.28,0.55-0.53c0.24-0.24,0.5-0.51,0.76-0.8c0.26-0.29,0.51-0.59,0.76-0.92c0.24-0.32,0.42-0.61,0.54-0.86
		c0.12-0.25,0.15-0.46,0.11-0.63c-0.04-0.17-0.21-0.26-0.5-0.26c-0.52,0-1.09,0.25-1.7,0.76c-0.61,0.5-1.2,1.14-1.75,1.9
		c-0.56,0.77-1.06,1.59-1.5,2.47c-0.44,0.88-0.73,1.71-0.88,2.47c-0.14,0.77-0.12,1.4,0.08,1.9c0.2,0.5,0.66,0.76,1.38,0.76
		c0.83,0,1.59-0.17,2.29-0.5c0.7-0.33,1.33-0.74,1.89-1.23c0.56-0.49,1.03-0.99,1.4-1.53s0.66-0.99,0.84-1.39
		c0.16-0.4,0.37-0.67,0.62-0.81c0.25-0.14,0.47-0.18,0.66-0.11s0.32,0.24,0.39,0.51c0.07,0.27,0.03,0.63-0.13,1.08
		c-0.18,0.45-0.51,1-0.99,1.65c-0.48,0.65-1.07,1.27-1.77,1.86c-0.7,0.59-1.49,1.1-2.36,1.51s-1.79,0.62-2.77,0.62
		c-1.35,0-2.41-0.34-3.19-1.01c-0.77-0.67-1.28-1.53-1.51-2.55c-0.23-1.03-0.22-2.13,0.05-3.31s0.76-2.28,1.49-3.31
		c0.72-1.03,1.65-1.88,2.79-2.55C16.81,24.21,18.14,23.87,19.65,23.87z"/>
	<path class="st0" d="M30.88,12.78c0.13-0.31,0.34-0.48,0.63-0.53c0.3-0.04,0.62,0,0.97,0.14c0.35,0.13,0.71,0.34,1.08,0.61
		c0.37,0.27,0.69,0.58,0.97,0.93s0.49,0.71,0.63,1.08c0.14,0.37,0.17,0.72,0.08,1.04c-0.05,0.2-0.27,0.61-0.65,1.23
		c-0.38,0.62-0.85,1.37-1.42,2.25c-0.57,0.88-1.21,1.87-1.92,2.97c-0.71,1.1-1.44,2.22-2.19,3.38c-0.75,1.15-1.48,2.3-2.19,3.46
		c-0.71,1.15-1.35,2.22-1.9,3.21c0.56-0.76,1.17-1.57,1.85-2.44s1.34-1.7,1.98-2.48c0.65-0.78,1.25-1.47,1.81-2.05
		c0.56-0.58,1.02-0.99,1.38-1.2c0.31-0.18,0.68-0.23,1.12-0.15c0.44,0.08,0.85,0.26,1.23,0.53s0.68,0.6,0.9,0.99
		c0.23,0.39,0.28,0.79,0.18,1.2c-0.09,0.32-0.29,0.77-0.61,1.34c-0.32,0.57-0.67,1.18-1.05,1.85c-0.39,0.67-0.78,1.34-1.19,2.02
		c-0.4,0.68-0.74,1.3-1.01,1.84c-0.27,0.54-0.44,0.98-0.51,1.31s0.03,0.49,0.3,0.47c0.41-0.04,0.86-0.21,1.34-0.53
		c0.48-0.31,0.93-0.7,1.36-1.15c0.43-0.45,0.83-0.93,1.19-1.43c0.36-0.5,0.62-0.95,0.78-1.35c0.18-0.4,0.39-0.67,0.63-0.81
		c0.24-0.14,0.46-0.18,0.66-0.11c0.2,0.07,0.33,0.24,0.4,0.51s0.02,0.63-0.16,1.08c-0.16,0.45-0.46,1-0.89,1.65
		c-0.43,0.65-0.95,1.27-1.55,1.86c-0.6,0.59-1.26,1.1-1.98,1.53c-0.72,0.42-1.46,0.63-2.21,0.63c-0.67,0-1.15-0.17-1.44-0.53
		s-0.47-0.81-0.51-1.39s0.01-1.23,0.16-1.97c0.15-0.74,0.35-1.49,0.59-2.27c0.24-0.77,0.5-1.54,0.77-2.31
		c0.27-0.77,0.5-1.45,0.7-2.07c-0.47,0.43-0.98,0.96-1.54,1.58c-0.56,0.62-1.13,1.27-1.7,1.96c-0.58,0.68-1.14,1.37-1.69,2.07
		c-0.55,0.69-1.05,1.33-1.51,1.92c-0.46,0.59-0.85,1.09-1.16,1.53c-0.32,0.43-0.54,0.73-0.66,0.89c-0.07,0.32-0.23,0.54-0.46,0.63
		c-0.23,0.1-0.47,0.11-0.7,0.03c-0.23-0.08-0.44-0.25-0.61-0.5c-0.17-0.25-0.22-0.58-0.15-0.97c0.14-1.06,0.47-2.34,0.99-3.85
		c0.51-1.5,1.12-3.08,1.81-4.74c0.69-1.66,1.43-3.32,2.21-4.98s1.52-3.19,2.2-4.58c0.68-1.39,1.27-2.56,1.75-3.51
		C30.47,13.63,30.77,13.03,30.88,12.78z"/>
	<path class="st0" d="M44.7,28.03c0.16-0.34,0.45-0.54,0.86-0.59c0.41-0.05,0.83,0,1.26,0.16c0.42,0.16,0.77,0.41,1.04,0.76
		s0.34,0.76,0.22,1.24c-0.09,0.32-0.25,0.71-0.49,1.15c-0.23,0.44-0.49,0.89-0.77,1.35c-0.28,0.46-0.55,0.91-0.82,1.36
		c-0.27,0.45-0.49,0.85-0.65,1.2s-0.24,0.63-0.23,0.82c0.01,0.2,0.15,0.29,0.42,0.27c0.41-0.04,0.81-0.21,1.2-0.53
		c0.39-0.31,0.75-0.7,1.09-1.15c0.34-0.45,0.65-0.93,0.92-1.43c0.27-0.5,0.49-0.95,0.65-1.35c0.18-0.4,0.39-0.67,0.63-0.81
		c0.24-0.14,0.46-0.18,0.66-0.11s0.33,0.24,0.41,0.51c0.07,0.27,0.02,0.63-0.16,1.08c-0.16,0.45-0.42,1-0.77,1.65
		c-0.35,0.65-0.77,1.27-1.27,1.86c-0.5,0.59-1.06,1.1-1.7,1.53c-0.64,0.42-1.34,0.63-2.09,0.63c-0.77,0-1.31-0.27-1.61-0.82
		s-0.45-1.23-0.45-2.04c-0.5,0.79-1.09,1.46-1.77,2c-0.67,0.54-1.44,0.77-2.28,0.7c-0.92-0.07-1.64-0.36-2.16-0.87
		c-0.52-0.5-0.87-1.13-1.04-1.89c-0.17-0.76-0.17-1.59,0-2.51s0.5-1.83,0.97-2.73c0.48-0.9,1.1-1.75,1.86-2.54
		c0.76-0.79,1.66-1.43,2.69-1.92c1.03-0.49,2.17-0.78,3.44-0.89c1.27-0.11,2.64,0.07,4.12,0.54c0.34,0.11,0.6,0.28,0.77,0.53
		c0.17,0.24,0.24,0.47,0.22,0.69c-0.03,0.22-0.16,0.39-0.41,0.51c-0.24,0.13-0.61,0.14-1.09,0.03c-0.83-0.2-1.62-0.22-2.38-0.08
		s-1.46,0.4-2.12,0.78s-1.26,0.85-1.8,1.4s-1.02,1.14-1.43,1.75s-0.75,1.22-1,1.84s-0.42,1.17-0.5,1.69
		c-0.08,0.51-0.07,0.94,0.03,1.28s0.31,0.54,0.63,0.59c0.38,0.07,0.75-0.04,1.11-0.32c0.36-0.29,0.71-0.67,1.05-1.16
		c0.34-0.49,0.66-1.04,0.96-1.66s0.56-1.22,0.8-1.8c0.16-0.58,0.33-1.11,0.5-1.59S44.56,28.3,44.7,28.03z"/>
	<path class="st0" d="M57.72,23.87c0.99,0,1.73,0.18,2.23,0.53c0.5,0.35,0.81,0.8,0.93,1.34s0.1,1.14-0.07,1.81
		s-0.42,1.32-0.74,1.97c-0.32,0.65-0.69,1.24-1.11,1.78s-0.79,0.96-1.13,1.27c-0.36,0.31-0.67,0.46-0.92,0.46s-0.46-0.09-0.62-0.27
		c-0.16-0.18-0.28-0.42-0.36-0.73c-0.08-0.31-0.13-0.61-0.14-0.92c-0.01-0.31,0.02-0.59,0.09-0.86c0.07-0.27,0.17-0.46,0.3-0.57
		s0.31-0.28,0.55-0.53c0.24-0.24,0.5-0.51,0.76-0.8c0.26-0.29,0.51-0.59,0.76-0.92c0.24-0.32,0.42-0.61,0.54-0.86
		c0.12-0.25,0.15-0.46,0.11-0.63c-0.04-0.17-0.21-0.26-0.5-0.26c-0.52,0-1.09,0.25-1.7,0.76c-0.61,0.5-1.2,1.14-1.75,1.9
		c-0.56,0.77-1.06,1.59-1.5,2.47c-0.44,0.88-0.73,1.71-0.88,2.47c-0.14,0.77-0.12,1.4,0.08,1.9c0.2,0.5,0.66,0.76,1.38,0.76
		c0.83,0,1.59-0.17,2.29-0.5c0.7-0.33,1.33-0.74,1.89-1.23c0.56-0.49,1.03-0.99,1.4-1.53s0.66-0.99,0.84-1.39
		c0.16-0.4,0.37-0.67,0.62-0.81c0.25-0.14,0.47-0.18,0.66-0.11s0.32,0.24,0.39,0.51c0.07,0.27,0.03,0.63-0.13,1.08
		c-0.18,0.45-0.51,1-0.99,1.65c-0.48,0.65-1.07,1.27-1.77,1.86c-0.7,0.59-1.49,1.1-2.36,1.51s-1.79,0.62-2.77,0.62
		c-1.35,0-2.41-0.34-3.19-1.01c-0.77-0.67-1.28-1.53-1.51-2.55c-0.23-1.03-0.22-2.13,0.05-3.31s0.76-2.28,1.49-3.31
		c0.72-1.03,1.65-1.88,2.79-2.55C54.88,24.21,56.21,23.87,57.72,23.87z"/>
	<path class="st0" d="M68.95,12.78c0.13-0.31,0.34-0.48,0.63-0.53c0.3-0.04,0.62,0,0.97,0.14c0.35,0.13,0.71,0.34,1.08,0.61
		c0.37,0.27,0.69,0.58,0.97,0.93s0.49,0.71,0.63,1.08c0.14,0.37,0.17,0.72,0.08,1.04c-0.05,0.2-0.27,0.61-0.65,1.23
		c-0.38,0.62-0.85,1.37-1.42,2.25c-0.57,0.88-1.21,1.87-1.92,2.97c-0.71,1.1-1.44,2.22-2.19,3.38c-0.75,1.15-1.48,2.3-2.19,3.46
		c-0.71,1.15-1.35,2.22-1.9,3.21c0.56-0.76,1.17-1.57,1.85-2.44s1.34-1.7,1.98-2.48c0.65-0.78,1.25-1.47,1.81-2.05
		c0.56-0.58,1.02-0.99,1.38-1.2c0.31-0.18,0.68-0.23,1.12-0.15c0.44,0.08,0.85,0.26,1.23,0.53s0.68,0.6,0.9,0.99
		c0.23,0.39,0.28,0.79,0.18,1.2c-0.09,0.32-0.29,0.77-0.61,1.34c-0.32,0.57-0.67,1.18-1.05,1.85c-0.39,0.67-0.78,1.34-1.19,2.02
		c-0.4,0.68-0.74,1.3-1.01,1.84c-0.27,0.54-0.44,0.98-0.51,1.31s0.03,0.49,0.3,0.47c0.41-0.04,0.86-0.21,1.34-0.53
		c0.48-0.31,0.93-0.7,1.36-1.15c0.43-0.45,0.83-0.93,1.19-1.43c0.36-0.5,0.62-0.95,0.78-1.35c0.18-0.4,0.39-0.67,0.63-0.81
		c0.24-0.14,0.46-0.18,0.66-0.11c0.2,0.07,0.33,0.24,0.4,0.51s0.02,0.63-0.16,1.08c-0.16,0.45-0.46,1-0.89,1.65
		c-0.43,0.65-0.95,1.27-1.55,1.86c-0.6,0.59-1.26,1.1-1.98,1.53c-0.72,0.42-1.46,0.63-2.21,0.63c-0.67,0-1.15-0.17-1.44-0.53
		s-0.47-0.81-0.51-1.39s0.01-1.23,0.16-1.97c0.15-0.74,0.35-1.49,0.59-2.27c0.24-0.77,0.5-1.54,0.77-2.31
		c0.27-0.77,0.5-1.45,0.7-2.07c-0.47,0.43-0.98,0.96-1.54,1.58c-0.56,0.62-1.13,1.27-1.7,1.96c-0.58,0.68-1.14,1.37-1.69,2.07
		c-0.55,0.69-1.05,1.33-1.51,1.92c-0.46,0.59-0.85,1.09-1.16,1.53c-0.32,0.43-0.54,0.73-0.66,0.89c-0.07,0.32-0.23,0.54-0.46,0.63
		c-0.23,0.1-0.47,0.11-0.7,0.03c-0.23-0.08-0.44-0.25-0.61-0.5c-0.17-0.25-0.22-0.58-0.15-0.97c0.14-1.06,0.47-2.34,0.99-3.85
		c0.51-1.5,1.12-3.08,1.81-4.74c0.69-1.66,1.43-3.32,2.21-4.98s1.52-3.19,2.2-4.58c0.68-1.39,1.27-2.56,1.75-3.51
		C68.54,13.63,68.84,13.03,68.95,12.78z"/>
	<path class="st0" d="M80.94,23.96c0.2-0.02,0.37-0.03,0.51-0.04c0.14-0.01,0.29,0,0.43,0.01c0.97,0,1.78,0.14,2.42,0.42
		c0.64,0.28,1.14,0.66,1.5,1.15s0.58,1.05,0.67,1.69c0.09,0.64,0.07,1.31-0.07,2.01c-0.13,0.7-0.37,1.42-0.71,2.16
		c-0.34,0.74-0.77,1.44-1.27,2.11c0.68-0.14,1.23-0.4,1.65-0.77s0.76-0.81,1.03-1.34c0.16-0.32,0.37-0.55,0.61-0.67
		c0.24-0.13,0.47-0.16,0.68-0.11c0.21,0.05,0.35,0.19,0.45,0.4c0.09,0.22,0.06,0.5-0.08,0.84c-0.14,0.36-0.38,0.74-0.7,1.15
		c-0.32,0.41-0.73,0.77-1.21,1.11s-1.05,0.61-1.7,0.82c-0.65,0.22-1.39,0.31-2.21,0.27c-0.88,0.81-1.87,1.45-2.96,1.93
		c-1.09,0.48-2.24,0.68-3.44,0.61c-0.86-0.05-1.53-0.34-1.98-0.86s-0.74-1.18-0.85-1.98c-0.11-0.8-0.05-1.69,0.18-2.67
		c0.22-0.98,0.59-1.95,1.09-2.92s1.14-1.87,1.92-2.73c0.77-0.85,1.65-1.54,2.62-2.07C79.89,24.22,80.38,24.05,80.94,23.96z
		 M77.29,28.49c-0.54,0.76-0.98,1.57-1.32,2.43s-0.55,1.66-0.63,2.39c-0.08,0.73-0.01,1.34,0.22,1.82c0.22,0.49,0.63,0.73,1.23,0.73
		c0.52,0,1.03-0.15,1.53-0.45s0.96-0.7,1.39-1.2c-0.94-0.63-1.6-1.47-1.98-2.52C77.32,30.64,77.18,29.57,77.29,28.49z M80.61,32.92
		c0.47-0.77,0.85-1.59,1.16-2.46c0.31-0.86,0.49-1.66,0.57-2.39s0.01-1.33-0.19-1.8c-0.2-0.47-0.56-0.68-1.08-0.65
		c-0.4,0.05-0.74,0.23-1.03,0.53s-0.52,0.67-0.7,1.11c-0.18,0.44-0.3,0.93-0.36,1.46s-0.04,1.06,0.05,1.59
		c0.1,0.53,0.27,1.03,0.53,1.49C79.81,32.26,80.16,32.63,80.61,32.92z"/>
	<path class="st0" d="M103.18,12.86c0.16-0.31,0.39-0.48,0.67-0.53c0.29-0.04,0.6,0,0.93,0.15c0.33,0.14,0.67,0.36,1,0.65
		c0.33,0.29,0.63,0.61,0.88,0.97c0.25,0.36,0.44,0.73,0.57,1.11c0.13,0.38,0.14,0.73,0.05,1.05c-0.07,0.25-0.31,0.71-0.7,1.38
		c-0.4,0.67-0.89,1.47-1.47,2.42c-0.58,0.94-1.23,1.98-1.93,3.09c-0.7,1.12-1.39,2.25-2.08,3.39c-0.68,1.14-1.32,2.25-1.92,3.33
		s-1.08,2.04-1.45,2.89s-0.59,1.54-0.66,2.08c-0.07,0.54,0.08,0.85,0.46,0.92c0.39,0.07,0.79-0.04,1.19-0.35
		c0.39-0.31,0.76-0.7,1.09-1.17c0.33-0.48,0.64-0.99,0.92-1.53c0.28-0.54,0.5-1.01,0.66-1.4c0.18-0.4,0.39-0.67,0.63-0.81
		c0.24-0.14,0.46-0.18,0.66-0.11c0.2,0.07,0.33,0.24,0.4,0.51s0.02,0.63-0.16,1.08c-0.16,0.45-0.42,1.01-0.77,1.67
		c-0.35,0.67-0.78,1.31-1.28,1.92c-0.5,0.61-1.07,1.13-1.7,1.54c-0.63,0.41-1.32,0.59-2.08,0.54c-0.92-0.05-1.55-0.42-1.89-1.09
		c-0.34-0.68-0.48-1.55-0.41-2.63c-0.29,0.5-0.6,0.98-0.94,1.42c-0.34,0.44-0.71,0.83-1.11,1.16c-0.4,0.33-0.82,0.59-1.27,0.77
		s-0.93,0.25-1.43,0.22c-0.95-0.07-1.69-0.36-2.21-0.87c-0.52-0.5-0.86-1.13-1.03-1.88s-0.16-1.58,0.01-2.48
		c0.17-0.91,0.47-1.81,0.9-2.7c0.43-0.89,0.99-1.73,1.66-2.52c0.67-0.79,1.44-1.44,2.28-1.93c0.85-0.49,1.75-0.8,2.73-0.92
		c0.97-0.12,1.99,0.04,3.05,0.47c0.56-1.39,1.15-2.74,1.78-4.05c0.63-1.31,1.21-2.51,1.75-3.59c0.54-1.08,1.01-1.99,1.4-2.73
		C102.8,13.55,103.06,13.07,103.18,12.86z M90.95,35.7c0.3,0.07,0.61,0.01,0.92-0.17c0.3-0.19,0.61-0.46,0.92-0.81
		c0.3-0.35,0.6-0.76,0.89-1.22c0.29-0.46,0.56-0.94,0.82-1.43c0.26-0.5,0.5-0.98,0.7-1.46s0.39-0.91,0.55-1.28
		c0.16-0.52,0.34-1.04,0.53-1.57c0.19-0.52,0.38-1.04,0.58-1.57c-0.76-0.04-1.48,0.17-2.16,0.61c-0.68,0.44-1.31,1-1.88,1.67
		c-0.57,0.68-1.05,1.42-1.44,2.24c-0.4,0.82-0.69,1.58-0.88,2.29c-0.19,0.71-0.25,1.32-0.19,1.82
		C90.38,35.34,90.59,35.63,90.95,35.7z"/>
	<path class="st0" d="M108.8,31.95c-0.88,0.31-1.64,0.47-2.28,0.49c-0.64,0.02-1.19-0.02-1.66-0.11c-0.16,0.49-0.28,0.95-0.35,1.39
		c-0.07,0.44-0.07,0.83,0.01,1.16s0.24,0.59,0.47,0.78c0.23,0.19,0.57,0.28,1,0.28c0.95,0,1.81-0.17,2.57-0.5s1.41-0.74,1.97-1.23
		c0.56-0.49,1.02-0.99,1.38-1.53s0.62-0.99,0.78-1.39c0.18-0.4,0.39-0.67,0.63-0.81c0.24-0.14,0.46-0.18,0.66-0.11
		s0.33,0.24,0.41,0.51c0.07,0.27,0.02,0.63-0.16,1.08c-0.16,0.45-0.46,1-0.9,1.65c-0.44,0.65-1,1.27-1.69,1.86
		c-0.68,0.59-1.49,1.1-2.42,1.51s-1.97,0.62-3.12,0.62c-1.35,0-2.41-0.34-3.19-1.01c-0.77-0.67-1.28-1.53-1.51-2.55
		s-0.22-2.13,0.05-3.31c0.27-1.18,0.76-2.28,1.49-3.31c0.72-1.03,1.65-1.88,2.79-2.55c1.14-0.67,2.47-1.01,3.98-1.01
		c0.99,0,1.75,0.17,2.27,0.5c0.52,0.33,0.86,0.76,1.01,1.28c0.15,0.52,0.15,1.1-0.01,1.74c-0.16,0.64-0.45,1.26-0.85,1.85
		c-0.41,0.59-0.9,1.13-1.47,1.62C110.09,31.35,109.47,31.71,108.8,31.95z M108.21,30.52c0.68-0.27,1.27-0.67,1.75-1.2
		c0.49-0.53,0.83-1.07,1.04-1.61c0.21-0.54,0.27-1.01,0.18-1.42c-0.09-0.4-0.36-0.61-0.81-0.61c-0.36,0-0.76,0.15-1.19,0.45
		c-0.43,0.3-0.87,0.69-1.31,1.17c-0.44,0.49-0.86,1.04-1.27,1.65c-0.41,0.61-0.77,1.24-1.09,1.89c0.36,0.05,0.77,0.06,1.23,0.03
		C107.19,30.83,107.68,30.71,108.21,30.52z"/>
	<path class="st0" d="M128.78,12.86c0.16-0.31,0.39-0.48,0.67-0.53c0.29-0.04,0.6,0,0.93,0.15c0.33,0.14,0.67,0.36,1,0.65
		s0.63,0.61,0.88,0.97c0.25,0.36,0.44,0.73,0.57,1.11s0.14,0.73,0.05,1.05c-0.07,0.25-0.31,0.71-0.7,1.38
		c-0.4,0.67-0.89,1.47-1.47,2.42s-1.23,1.98-1.93,3.09c-0.7,1.12-1.39,2.25-2.08,3.39c-0.68,1.14-1.32,2.25-1.92,3.33
		c-0.59,1.08-1.08,2.04-1.44,2.89s-0.59,1.54-0.66,2.08c-0.07,0.54,0.08,0.85,0.46,0.92c0.4,0.07,0.79-0.04,1.19-0.35
		c0.4-0.31,0.76-0.7,1.09-1.17s0.64-0.99,0.92-1.53c0.28-0.54,0.5-1.01,0.66-1.4c0.18-0.4,0.39-0.67,0.63-0.81
		c0.24-0.14,0.46-0.18,0.66-0.11s0.33,0.24,0.41,0.51s0.02,0.63-0.16,1.08c-0.16,0.45-0.42,1.01-0.77,1.67
		c-0.35,0.67-0.78,1.31-1.28,1.92c-0.5,0.61-1.07,1.13-1.7,1.54s-1.32,0.59-2.08,0.54c-0.92-0.05-1.55-0.42-1.89-1.09
		c-0.34-0.68-0.48-1.55-0.41-2.63c-0.29,0.5-0.6,0.98-0.94,1.42c-0.34,0.44-0.71,0.83-1.11,1.16c-0.4,0.33-0.82,0.59-1.27,0.77
		c-0.45,0.18-0.93,0.25-1.43,0.22c-0.95-0.07-1.69-0.36-2.21-0.87c-0.52-0.5-0.86-1.13-1.03-1.88c-0.16-0.75-0.16-1.58,0.01-2.48
		c0.17-0.91,0.47-1.81,0.9-2.7c0.43-0.89,0.99-1.73,1.66-2.52c0.67-0.79,1.44-1.44,2.28-1.93c0.85-0.49,1.75-0.8,2.73-0.92
		c0.97-0.12,1.99,0.04,3.05,0.47c0.56-1.39,1.15-2.74,1.78-4.05c0.63-1.31,1.21-2.51,1.75-3.59s1.01-1.99,1.4-2.73
		C128.39,13.55,128.65,13.07,128.78,12.86z M116.55,35.7c0.31,0.07,0.61,0.01,0.92-0.17c0.31-0.19,0.61-0.46,0.92-0.81
		c0.31-0.35,0.6-0.76,0.89-1.22s0.56-0.94,0.82-1.43s0.5-0.98,0.7-1.46s0.39-0.91,0.55-1.28c0.16-0.52,0.34-1.04,0.53-1.57
		c0.19-0.52,0.38-1.04,0.58-1.57c-0.76-0.04-1.48,0.17-2.16,0.61c-0.68,0.44-1.31,1-1.88,1.67c-0.57,0.68-1.05,1.42-1.44,2.24
		c-0.4,0.82-0.69,1.58-0.88,2.29c-0.19,0.71-0.25,1.32-0.19,1.82C115.98,35.34,116.19,35.63,116.55,35.7z"/>
	<path class="st0" d="M134.4,31.95c-0.88,0.31-1.64,0.47-2.28,0.49c-0.64,0.02-1.19-0.02-1.66-0.11c-0.16,0.49-0.28,0.95-0.35,1.39
		c-0.07,0.44-0.07,0.83,0.01,1.16s0.24,0.59,0.47,0.78c0.23,0.19,0.57,0.28,1,0.28c0.95,0,1.81-0.17,2.57-0.5s1.41-0.74,1.97-1.23
		c0.56-0.49,1.02-0.99,1.38-1.53s0.62-0.99,0.78-1.39c0.18-0.4,0.39-0.67,0.63-0.81c0.24-0.14,0.46-0.18,0.66-0.11
		s0.33,0.24,0.41,0.51c0.07,0.27,0.02,0.63-0.16,1.08c-0.16,0.45-0.46,1-0.9,1.65c-0.44,0.65-1,1.27-1.69,1.86
		c-0.68,0.59-1.49,1.1-2.42,1.51s-1.97,0.62-3.12,0.62c-1.35,0-2.41-0.34-3.19-1.01c-0.77-0.67-1.28-1.53-1.51-2.55
		s-0.22-2.13,0.05-3.31c0.27-1.18,0.76-2.28,1.49-3.31c0.72-1.03,1.65-1.88,2.79-2.55c1.14-0.67,2.47-1.01,3.98-1.01
		c0.99,0,1.75,0.17,2.27,0.5c0.52,0.33,0.86,0.76,1.01,1.28c0.15,0.52,0.15,1.1-0.01,1.74c-0.16,0.64-0.45,1.26-0.85,1.85
		c-0.41,0.59-0.9,1.13-1.47,1.62C135.68,31.35,135.06,31.71,134.4,31.95z M133.8,30.52c0.68-0.27,1.27-0.67,1.75-1.2
		c0.49-0.53,0.83-1.07,1.04-1.61c0.21-0.54,0.27-1.01,0.18-1.42c-0.09-0.4-0.36-0.61-0.81-0.61c-0.36,0-0.76,0.15-1.19,0.45
		c-0.43,0.3-0.87,0.69-1.31,1.17c-0.44,0.49-0.86,1.04-1.27,1.65c-0.41,0.61-0.77,1.24-1.09,1.89c0.36,0.05,0.77,0.06,1.23,0.03
		C132.79,30.83,133.28,30.71,133.8,30.52z"/>
	<path class="st0" d="M142.15,35.97c0,0.43-0.15,0.8-0.46,1.11c-0.31,0.31-0.68,0.46-1.11,0.46s-0.8-0.15-1.11-0.46
		c-0.31-0.3-0.46-0.67-0.46-1.11s0.15-0.8,0.46-1.11c0.31-0.31,0.68-0.46,1.11-0.46s0.8,0.15,1.11,0.46
		C141.99,35.17,142.15,35.54,142.15,35.97z"/>
	<path class="st0" d="M152.65,23.87c0.99,0,1.73,0.18,2.23,0.53c0.5,0.35,0.81,0.8,0.93,1.34s0.1,1.14-0.07,1.81
		s-0.42,1.32-0.74,1.97s-0.69,1.24-1.11,1.78s-0.79,0.96-1.13,1.27c-0.36,0.31-0.67,0.46-0.92,0.46s-0.46-0.09-0.62-0.27
		c-0.16-0.18-0.28-0.42-0.36-0.73c-0.08-0.31-0.13-0.61-0.13-0.92c-0.01-0.31,0.02-0.59,0.09-0.86c0.07-0.27,0.17-0.46,0.3-0.57
		c0.13-0.11,0.31-0.28,0.55-0.53c0.24-0.24,0.5-0.51,0.76-0.8c0.26-0.29,0.51-0.59,0.76-0.92c0.24-0.32,0.42-0.61,0.54-0.86
		c0.12-0.25,0.15-0.46,0.11-0.63c-0.04-0.17-0.21-0.26-0.5-0.26c-0.52,0-1.09,0.25-1.7,0.76c-0.61,0.5-1.2,1.14-1.75,1.9
		c-0.56,0.77-1.06,1.59-1.5,2.47c-0.44,0.88-0.73,1.71-0.88,2.47c-0.14,0.77-0.12,1.4,0.08,1.9c0.2,0.5,0.66,0.76,1.38,0.76
		c0.83,0,1.59-0.17,2.29-0.5s1.33-0.74,1.89-1.23s1.03-0.99,1.4-1.53s0.66-0.99,0.84-1.39c0.16-0.4,0.37-0.67,0.62-0.81
		c0.25-0.14,0.47-0.18,0.66-0.11c0.19,0.07,0.32,0.24,0.39,0.51s0.03,0.63-0.13,1.08c-0.18,0.45-0.51,1-0.99,1.65
		c-0.48,0.65-1.07,1.27-1.77,1.86c-0.7,0.59-1.49,1.1-2.36,1.51c-0.87,0.41-1.8,0.62-2.77,0.62c-1.35,0-2.41-0.34-3.19-1.01
		c-0.77-0.67-1.28-1.53-1.51-2.55s-0.22-2.13,0.05-3.31c0.27-1.18,0.76-2.28,1.49-3.31c0.72-1.03,1.65-1.88,2.79-2.55
		C149.81,24.21,151.14,23.87,152.65,23.87z"/>
	<path class="st0" d="M162.23,23.96c0.2-0.02,0.37-0.03,0.51-0.04c0.14-0.01,0.29,0,0.43,0.01c0.97,0,1.78,0.14,2.42,0.42
		c0.64,0.28,1.14,0.66,1.5,1.15c0.36,0.49,0.58,1.05,0.67,1.69c0.09,0.64,0.07,1.31-0.07,2.01c-0.14,0.7-0.37,1.42-0.72,2.16
		c-0.34,0.74-0.77,1.44-1.27,2.11c0.68-0.14,1.23-0.4,1.65-0.77s0.76-0.81,1.03-1.34c0.16-0.32,0.36-0.55,0.61-0.67
		s0.47-0.16,0.67-0.11c0.21,0.05,0.36,0.19,0.45,0.4c0.09,0.22,0.06,0.5-0.08,0.84c-0.14,0.36-0.38,0.74-0.7,1.15
		c-0.32,0.41-0.73,0.77-1.21,1.11s-1.05,0.61-1.7,0.82c-0.65,0.22-1.39,0.31-2.21,0.27c-0.88,0.81-1.87,1.45-2.96,1.93
		c-1.09,0.48-2.24,0.68-3.44,0.61c-0.86-0.05-1.53-0.34-1.99-0.86c-0.46-0.52-0.74-1.18-0.85-1.98c-0.11-0.8-0.05-1.69,0.17-2.67
		c0.23-0.98,0.59-1.95,1.09-2.92s1.14-1.87,1.92-2.73c0.77-0.85,1.65-1.54,2.62-2.07C161.19,24.22,161.67,24.05,162.23,23.96z
		 M158.59,28.49c-0.54,0.76-0.98,1.57-1.32,2.43c-0.34,0.86-0.55,1.66-0.63,2.39c-0.08,0.73-0.01,1.34,0.22,1.82
		c0.22,0.49,0.63,0.73,1.23,0.73c0.52,0,1.03-0.15,1.53-0.45s0.96-0.7,1.39-1.2c-0.94-0.63-1.6-1.47-1.98-2.52
		C158.62,30.64,158.48,29.57,158.59,28.49z M161.91,32.92c0.47-0.77,0.85-1.59,1.16-2.46c0.31-0.86,0.5-1.66,0.57-2.39
		c0.07-0.73,0.01-1.33-0.19-1.8c-0.2-0.47-0.56-0.68-1.08-0.65c-0.4,0.05-0.74,0.23-1.03,0.53c-0.29,0.3-0.52,0.67-0.7,1.11
		c-0.18,0.44-0.3,0.93-0.37,1.46c-0.06,0.53-0.04,1.06,0.05,1.59c0.1,0.53,0.27,1.03,0.53,1.49S161.46,32.63,161.91,32.92z"/>
	<path class="st0" d="M169.87,24.85c0.13-0.31,0.33-0.51,0.62-0.61c0.29-0.1,0.6-0.12,0.95-0.07c0.34,0.05,0.68,0.17,1.01,0.35
		c0.33,0.18,0.62,0.4,0.86,0.65s0.41,0.53,0.51,0.84c0.1,0.31,0.08,0.61-0.07,0.92c-0.23,0.47-0.56,1.08-0.97,1.84
		c-0.42,0.76-0.86,1.64-1.35,2.65c0.45-0.7,0.92-1.42,1.42-2.15c0.49-0.73,0.99-1.41,1.47-2.05c0.49-0.64,0.94-1.21,1.36-1.7
		c0.42-0.5,0.8-0.85,1.12-1.07c0.29-0.27,0.66-0.39,1.12-0.35c0.46,0.04,0.89,0.18,1.3,0.42c0.4,0.24,0.72,0.55,0.94,0.93
		c0.23,0.38,0.24,0.77,0.04,1.19c-0.2,0.41-0.48,0.96-0.84,1.63c-0.36,0.67-0.75,1.44-1.16,2.31c0.47-0.67,0.94-1.33,1.43-2
		s0.95-1.28,1.4-1.85c0.45-0.57,0.87-1.06,1.27-1.49c0.4-0.42,0.74-0.72,1.03-0.88c0.31-0.18,0.68-0.23,1.12-0.15
		c0.44,0.08,0.85,0.26,1.23,0.53s0.68,0.6,0.91,0.99c0.22,0.39,0.28,0.79,0.17,1.2c-0.09,0.32-0.3,0.77-0.62,1.34
		c-0.32,0.57-0.69,1.18-1.11,1.85s-0.84,1.34-1.27,2.02c-0.43,0.68-0.79,1.3-1.08,1.84s-0.47,0.98-0.55,1.31s0.01,0.49,0.28,0.47
		c0.4-0.04,0.83-0.21,1.31-0.53c0.48-0.31,0.94-0.7,1.38-1.15c0.44-0.45,0.84-0.93,1.2-1.43s0.62-0.95,0.78-1.35
		c0.18-0.4,0.39-0.67,0.63-0.81c0.24-0.14,0.46-0.18,0.66-0.11s0.33,0.24,0.41,0.51c0.07,0.27,0.02,0.63-0.16,1.08
		c-0.16,0.45-0.46,1-0.89,1.65c-0.43,0.65-0.95,1.27-1.55,1.86c-0.6,0.59-1.27,1.1-2,1.53c-0.73,0.42-1.47,0.63-2.23,0.63
		c-0.65,0-1.12-0.17-1.42-0.51s-0.46-0.79-0.5-1.35c-0.04-0.56,0.03-1.2,0.19-1.92c0.16-0.72,0.37-1.47,0.62-2.24
		s0.52-1.54,0.81-2.28c0.29-0.75,0.54-1.44,0.76-2.07c-0.58,0.58-1.2,1.28-1.86,2.12c-0.67,0.84-1.32,1.69-1.96,2.57
		c-0.64,0.87-1.23,1.7-1.78,2.48c-0.55,0.78-0.99,1.42-1.31,1.9c-0.14,0.36-0.34,0.66-0.59,0.89c-0.25,0.23-0.49,0.37-0.72,0.41
		c-0.23,0.04-0.41-0.04-0.55-0.23c-0.14-0.19-0.18-0.52-0.11-0.99c0.07-0.56,0.18-1.19,0.32-1.9c0.14-0.71,0.3-1.44,0.47-2.19
		c0.17-0.75,0.36-1.5,0.55-2.25s0.4-1.48,0.59-2.16c-0.54,0.63-1.1,1.33-1.69,2.11c-0.58,0.77-1.15,1.55-1.69,2.32
		c-0.54,0.77-1.04,1.5-1.48,2.19c-0.45,0.68-0.82,1.25-1.11,1.7c-0.02,0.02-0.03,0.04-0.03,0.08c-0.14,0.38-0.34,0.68-0.59,0.92
		c-0.25,0.23-0.5,0.37-0.73,0.42c-0.23,0.04-0.42-0.03-0.57-0.22c-0.14-0.19-0.18-0.53-0.11-1.01c0.13-0.85,0.28-1.84,0.46-2.97
		c0.18-1.13,0.38-2.26,0.59-3.38s0.44-2.15,0.66-3.09C169.44,26.05,169.66,25.33,169.87,24.85z"/>
</g>
</svg>
